<?xml version="1.0" standalone="no"?>
<!DOCTYPE svg PUBLIC "-//W3C//DTD SVG 20010904//EN"
 "http://www.w3.org/TR/2001/REC-SVG-20010904/DTD/svg10.dtd">
<svg version="1.0" xmlns="http://www.w3.org/2000/svg"
 width="700.000000pt" height="700.000000pt" viewBox="0 0 700.000000 700.000000"
 preserveAspectRatio="xMidYMid meet">
<metadata>
Created by potrace 1.14, written by Peter Selinger 2001-2017
</metadata>
<g transform="translate(0.000000,700.000000) scale(0.100000,-0.100000)"
fill="#000000" stroke="none">
<path d="M4647 5884 c-1 -1 -29 -4 -62 -8 -383 -40 -722 -317 -844 -687 -22
-68 -26 -84 -41 -174 -11 -65 -10 -232 2 -293 4 -26 11 -59 13 -73 9 -50 45
-150 78 -217 50 -102 101 -174 186 -261 251 -261 611 -362 976 -276 203 48
416 184 538 344 23 31 45 58 48 61 4 3 29 48 57 100 89 169 122 310 117 500
-2 63 -6 126 -9 140 -3 14 -8 39 -12 55 -42 216 -206 462 -399 600 -92 66
-258 143 -347 161 -88 17 -291 37 -301 28z m259 -426 c132 -48 236 -128 308
-238 105 -158 134 -332 85 -510 -75 -275 -337 -466 -622 -454 -221 10 -423
140 -524 339 -36 70 -42 89 -56 160 -51 264 77 535 315 663 99 54 184 72 313
69 88 -3 125 -9 181 -29z"/>
<path d="M1748 5480 c-66 -35 -107 -109 -103 -182 5 -66 24 -96 133 -207 248
-253 1389 -1407 1410 -1424 12 -12 22 -23 22 -27 0 -6 -223 -233 -1260 -1279
-354 -358 -650 -661 -657 -673 -51 -95 -10 -218 91 -270 l41 -21 2040 -1
c1122 -1 2058 2 2080 7 120 24 190 155 142 268 -15 36 -32 53 -957 989 -311
314 -702 710 -870 880 -275 278 -1034 1046 -1669 1688 -150 152 -253 248 -275
257 -49 21 -123 18 -168 -5z m1831 -2211 c20 -20 326 -330 681 -689 355 -358
675 -682 713 -720 37 -37 67 -69 67 -71 0 -3 -2674 -2 -3058 1 l-47 0 512 518
c282 284 631 637 775 783 l263 267 29 -27 c16 -14 45 -42 65 -62z"/>
</g>
</svg>
