<?xml version="1.0" standalone="no"?>
<!DOCTYPE svg PUBLIC "-//W3C//DTD SVG 20010904//EN"
 "http://www.w3.org/TR/2001/REC-SVG-20010904/DTD/svg10.dtd">
<svg version="1.0" xmlns="http://www.w3.org/2000/svg"
 width="1000.000000pt" height="1000.000000pt" viewBox="0 0 1000.000000 1000.000000"
 preserveAspectRatio="xMidYMid meet">
<metadata>
Created by potrace 1.14, written by Peter Selinger 2001-2017
</metadata>
<g transform="translate(0.000000,1000.000000) scale(0.100000,-0.100000)"
fill="#000000" stroke="none">
<path d="M6617 8404 c-1 -2 -33 -5 -71 -9 -38 -3 -72 -8 -75 -10 -3 -1 -22 -6
-41 -9 -73 -12 -91 -17 -191 -52 -356 -124 -644 -375 -812 -709 -158 -312
-194 -638 -113 -1017 12 -54 69 -205 106 -279 136 -269 379 -513 647 -648 93
-47 253 -102 368 -127 120 -25 411 -28 535 -5 121 24 129 25 225 57 289 96
573 317 747 584 97 149 183 374 211 550 16 97 17 380 2 465 -64 364 -252 676
-551 915 -117 93 -356 212 -494 245 -69 17 -165 35 -215 41 -55 7 -273 13
-278 8z m263 -574 c332 -62 602 -309 690 -633 57 -213 41 -410 -51 -605 -105
-227 -294 -394 -529 -470 -95 -31 -113 -34 -250 -37 -169 -5 -282 20 -426 93
-217 110 -407 353 -453 582 -6 30 -14 66 -16 80 -17 83 -4 267 27 370 126 431
568 702 1008 620z"/>
<path d="M2583 7859 c-183 -33 -287 -226 -210 -391 27 -59 -18 -12 1043 -1085
364 -367 777 -785 918 -928 l255 -260 -229 -230 c-126 -126 -345 -348 -487
-492 -457 -463 -1866 -1884 -1934 -1950 -85 -82 -120 -146 -126 -227 -10 -126
69 -248 186 -283 55 -17 199 -18 2997 -18 l2939 1 48 23 c107 52 161 140 162
261 0 65 -4 82 -30 127 -19 33 -169 192 -424 450 -216 219 -685 693 -1041
1053 -356 360 -743 752 -860 870 -116 118 -508 514 -870 880 -362 366 -747
756 -856 866 -1093 1108 -1270 1284 -1308 1303 -54 27 -121 39 -173 30z m2586
-3248 c97 -99 448 -454 781 -791 333 -336 721 -729 863 -873 142 -144 287
-291 322 -327 l65 -65 -2215 0 c-1218 0 -2215 2 -2215 5 0 2 115 119 255 260
140 140 406 409 592 597 1018 1030 1359 1373 1367 1373 5 0 88 -81 185 -179z"/>
</g>
</svg>
